<svg width="136" height="104" viewBox="0 0 136 104" fill="none" xmlns="http://www.w3.org/2000/svg">
<g clip-path="url(#clip0_14_10)">
<path d="M128.029 27.7965C128.051 27.4977 128.062 27.2002 128.062 26.9039C128.061 23.7507 126.83 20.7164 124.62 18.4189C122.411 16.1213 119.388 14.7332 116.168 14.5372C114.603 10.5093 111.89 7.00413 108.349 4.43705C104.809 1.86997 100.589 0.34856 96.1911 0.0530733C91.793 -0.242413 87.4003 0.700407 83.5336 2.76983C79.6669 4.83926 76.4882 7.94855 74.3741 11.7293C73.6953 11.6529 73.0125 11.6139 72.3291 11.6125C69.5947 11.6038 66.8925 12.1886 64.4174 13.3245C61.9424 14.4605 59.7563 16.1194 58.017 18.1814C57.7346 18.5167 57.5591 18.9257 57.5125 19.3575C57.4659 19.7894 57.5501 20.2251 57.7548 20.6106C57.9594 20.9961 58.2755 21.3143 58.6636 21.5257C59.0517 21.7371 59.4949 21.8324 59.938 21.7997C60.1772 21.7824 60.433 21.7836 60.6742 21.7847C66.3393 21.7962 71.8816 23.3988 76.641 26.4016C81.4005 29.4045 85.1765 33.681 87.5194 38.7218C87.7323 39.1804 88.0986 39.5545 88.558 39.7824C89.0174 40.0103 89.5426 40.0786 90.047 39.9758C94.0159 39.1708 98.133 39.4185 101.971 40.6931C105.809 41.9677 109.228 44.2228 111.873 47.2244C112.086 47.4677 112.35 47.663 112.648 47.7969C112.945 47.9308 113.269 48.0001 113.597 48H131.623C132.019 48 132.408 47.8988 132.751 47.7063C133.095 47.5138 133.38 47.2368 133.58 46.9029C134.836 44.8014 135.499 42.4117 135.5 39.9781C135.489 37.479 134.789 35.029 133.475 32.8855C132.16 30.742 130.279 28.9841 128.029 27.7965Z" fill="#7CC9F2"/>
</g>
<g clip-path="url(#clip1_14_10)">
<path d="M121.448 55.8235C121.019 48.9672 117.993 42.5322 112.987 37.8278C107.98 33.1234 101.37 30.5031 94.5 30.5C93.2361 30.5 91.9737 30.5873 90.7218 30.7614C87.8735 25.2679 83.5732 20.6606 78.2887 17.4409C73.0043 14.2211 66.9381 12.5122 60.75 12.5C60.4028 12.5 60.0282 12.5023 59.7888 12.5225C52.9725 12.6946 46.37 14.9375 40.8592 18.9529C35.3485 22.9682 31.1904 28.5659 28.938 35.0016C24.2205 35.0892 19.7255 37.0233 16.4183 40.3885C13.1111 43.7537 11.2555 48.2817 11.25 53C11.2504 53.6888 11.2907 54.3769 11.3709 55.061C7.97308 56.7374 5.10943 59.3271 3.10101 62.5398C1.09259 65.7525 0.0188041 69.4612 4.8999e-05 73.25C-0.00784844 76.8151 0.939045 80.3172 2.74235 83.3925C2.94097 83.7299 3.22425 84.0095 3.56415 84.2038C3.90405 84.398 4.28879 84.5001 4.68027 84.5H30.06C30.596 84.5 31.1144 84.3087 31.5219 83.9604C31.9293 83.6122 32.1991 83.13 32.2826 82.6005C32.9319 78.501 35.0227 74.7677 38.1789 72.072C41.3351 69.3764 45.3496 67.8954 49.5002 67.8954C53.6509 67.8954 57.6654 69.3764 60.8216 72.072C63.9778 74.7677 66.0686 78.501 66.7179 82.6005C66.8014 83.13 67.0712 83.6122 67.4786 83.9604C67.8861 84.3087 68.4045 84.5 68.9405 84.5H129.915C130.277 84.5002 130.634 84.4129 130.955 84.2458C131.276 84.0786 131.552 83.8363 131.759 83.5397C133.874 80.5256 135.006 76.9319 135 73.25C134.985 69.2559 133.647 65.3794 131.195 62.2264C128.743 59.0735 125.316 56.8218 121.448 55.8235Z" fill="#9CD5F2"/>
</g>
<g clip-path="url(#clip2_14_10)">
<path d="M72.7455 85.345C72.704 84.5797 72.6228 83.817 72.5023 83.0598C71.6918 78.0247 69.0805 73.4393 65.1382 70.1286C61.1959 66.818 56.1815 64.9993 50.9971 65C45.8126 65.0007 40.7987 66.8206 36.8572 70.1322C32.9158 73.4439 30.3057 78.03 29.4966 83.0653C29.3769 83.8207 29.2961 84.5816 29.2545 85.345C25.8122 86.5676 22.8367 88.8037 20.7334 91.7489C18.63 94.6941 17.501 98.2052 17.5 101.804C17.5 102.386 17.7353 102.945 18.1541 103.357C18.573 103.769 19.141 104 19.7333 104H82.2667C82.859 104 83.427 103.769 83.8459 103.357C84.2647 102.945 84.5 102.386 84.5 101.804C84.499 98.2052 83.37 94.6941 81.2666 91.7489C79.1633 88.8037 76.1879 86.5676 72.7455 85.345Z" fill="#B2EBF2"/>
</g>
<defs>
<clipPath id="clip0_14_10">
<rect width="78" height="48" fill="white" transform="translate(57.5)"/>
</clipPath>
<clipPath id="clip1_14_10">
<rect width="135" height="72" fill="white" transform="translate(0 12.5)"/>
</clipPath>
<clipPath id="clip2_14_10">
<rect width="67" height="39" fill="white" transform="translate(17.5 65)"/>
</clipPath>
</defs>
</svg>
