<svg width="112" height="130" viewBox="0 0 112 130" fill="none" xmlns="http://www.w3.org/2000/svg">
<path d="M25.5055 65.7212C25.3281 65.6697 25.1387 65.6467 24.9482 65.6537C24.7578 65.6606 24.5699 65.6973 24.3954 65.7617C24.2209 65.8261 24.0632 65.917 23.9312 66.029C23.7993 66.1411 23.6958 66.2721 23.6266 66.4147L17.2 79.5824C17.06 79.8702 17.0681 80.1876 17.2226 80.4645C17.377 80.7416 17.6651 80.9556 18.0234 81.0596C18.3818 81.1635 18.7811 81.1488 19.1334 81.0188C19.4858 80.8887 19.7624 80.654 19.9024 80.3661L26.3428 67.1861C26.4776 66.8984 26.4652 66.583 26.3084 66.3085C26.1515 66.0341 25.8629 65.823 25.5055 65.7212ZM36.2372 65.1217C36.0598 65.0701 35.8704 65.0472 35.6799 65.0541C35.4894 65.0611 35.3015 65.0978 35.127 65.1622C34.9525 65.2266 34.7948 65.3174 34.6629 65.4295C34.531 65.5415 34.4275 65.6726 34.3583 65.8152L21.5208 92.1727C21.4515 92.3153 21.4178 92.4665 21.4217 92.618C21.4256 92.7693 21.4669 92.9178 21.5434 93.055C21.6198 93.1921 21.7299 93.3152 21.8673 93.4173C22.0047 93.5194 22.1668 93.5984 22.3442 93.6499C22.5217 93.7013 22.711 93.7243 22.9015 93.7172C23.0919 93.7103 23.2798 93.6735 23.4542 93.6091C23.6287 93.5447 23.7864 93.4539 23.9184 93.3419C24.0503 93.2299 24.1539 93.099 24.2232 92.9565L37.104 66.5965C37.1721 66.4519 37.2036 66.2988 37.1968 66.146C37.1898 65.9932 37.1447 65.8438 37.0641 65.7065C36.9834 65.5692 36.8687 65.4468 36.7267 65.3464C36.5848 65.246 36.4184 65.1696 36.2372 65.1217ZM57.715 63.9218C57.5376 63.8703 57.3481 63.8473 57.1577 63.8543C56.9672 63.8612 56.7793 63.898 56.6048 63.9624C56.4303 64.0268 56.2726 64.1176 56.1407 64.2296C56.0087 64.3417 55.9052 64.4727 55.836 64.6153L42.9406 90.9761C42.8713 91.1186 42.8377 91.2699 42.8416 91.4213C42.8454 91.5726 42.8867 91.7212 42.9632 91.8583C43.0397 91.9955 43.1498 92.1187 43.2871 92.2207C43.4246 92.3228 43.5867 92.4019 43.7641 92.4533C43.9415 92.5048 44.1308 92.5276 44.3213 92.5207C44.5118 92.5136 44.6996 92.4769 44.8741 92.4126C45.0485 92.3482 45.2062 92.2573 45.3382 92.1453C45.4702 92.0334 45.5737 91.9023 45.643 91.7598L58.5239 65.3998C58.6651 65.1134 58.6593 64.797 58.5077 64.52C58.3561 64.243 58.071 64.0279 57.715 63.9218ZM46.9688 64.5222C46.7914 64.4706 46.6021 64.4477 46.4115 64.4546C46.221 64.4616 46.0331 64.4983 45.8586 64.5627C45.6841 64.6271 45.5264 64.7179 45.3945 64.83C45.2626 64.942 45.1591 65.0731 45.0899 65.2156L38.6488 78.3841C38.5088 78.672 38.5169 78.9894 38.6714 79.2663C38.8258 79.5434 39.1138 79.7574 39.4722 79.8613C39.8306 79.9653 40.2299 79.9506 40.5823 79.8205C40.9346 79.6905 41.2112 79.4558 41.3511 79.1679L47.7916 65.9879C47.9274 65.7016 47.9172 65.3871 47.7631 65.1128C47.6091 64.8384 47.3237 64.6262 46.9688 64.5222Z" fill="#B3E5FC"/>
<path d="M70.4173 47.477C70.243 47.3994 70.0552 47.3571 69.8646 47.3525C69.674 47.3478 69.4844 47.3809 69.3066 47.4499C69.1288 47.5188 68.9662 47.6222 68.8283 47.7542C68.6903 47.8862 68.5796 48.0442 68.5026 48.2192L61.3515 64.3739C61.1957 64.7272 61.1861 65.128 61.3248 65.4882C61.4636 65.8485 61.7393 66.1387 62.0913 66.295C62.4433 66.4514 62.8428 66.4611 63.2018 66.3218C63.5609 66.1826 63.8502 65.906 64.006 65.5529L71.1716 49.3835C71.3222 49.0302 71.3274 48.6314 71.1861 48.2742C71.0448 47.9171 70.7684 47.6305 70.4173 47.477ZM81.1657 47.477C80.9914 47.3994 80.8036 47.3571 80.613 47.3525C80.4224 47.3478 80.2328 47.3809 80.055 47.4499C79.8771 47.5188 79.7146 47.6222 79.5766 47.7542C79.4387 47.8862 79.328 48.0442 79.2509 48.2192L64.9633 80.5578C64.8862 80.7327 64.8441 80.9211 64.8395 81.1123C64.835 81.3035 64.868 81.4937 64.9366 81.6721C65.0053 81.8504 65.1084 82.0135 65.2399 82.152C65.3714 82.2904 65.5288 82.4015 65.7031 82.4789C65.8774 82.5563 66.0652 82.5985 66.2557 82.6031C66.4463 82.6076 66.6358 82.5746 66.8136 82.5056C66.9914 82.4368 67.154 82.3334 67.2919 82.2014C67.4299 82.0695 67.5406 81.9115 67.6178 81.7367L81.949 49.3981C82.0249 49.2205 82.0649 49.0296 82.0666 48.8364C82.0682 48.6432 82.0316 48.4516 81.9586 48.2728C81.8857 48.094 81.7781 47.9315 81.6419 47.7949C81.5057 47.6582 81.3439 47.5502 81.1657 47.477ZM102.677 47.477C102.503 47.3994 102.315 47.3571 102.124 47.3525C101.934 47.3478 101.744 47.3809 101.566 47.4499C101.388 47.5188 101.226 47.6222 101.088 47.7542C100.95 47.8862 100.839 48.0442 100.762 48.2192L86.4166 80.5578C86.3394 80.7327 86.2973 80.9211 86.2928 81.1123C86.2882 81.3035 86.3212 81.4937 86.3899 81.6721C86.4586 81.8504 86.5616 82.0135 86.6931 82.152C86.8246 82.2904 86.982 82.4015 87.1563 82.4789C87.3306 82.5563 87.5185 82.5985 87.7089 82.6031C87.8995 82.6076 88.0891 82.5746 88.2668 82.5056C88.4446 82.4368 88.6073 82.3334 88.7452 82.2014C88.8832 82.0695 88.9938 81.9115 89.071 81.7367L103.402 49.3981C103.559 49.0467 103.571 48.6473 103.435 48.2872C103.299 47.9271 103.027 47.6358 102.677 47.477ZM91.9141 47.477C91.7398 47.3994 91.5519 47.3571 91.3613 47.3525C91.1707 47.3478 90.9812 47.3809 90.8033 47.4499C90.6255 47.5188 90.463 47.6222 90.3251 47.7542C90.1871 47.8862 90.0764 48.0442 89.9993 48.2192L82.8338 64.3739C82.678 64.7272 82.6683 65.128 82.8071 65.4882C82.9459 65.8485 83.2215 66.1387 83.5736 66.295C83.9255 66.4514 84.325 66.4611 84.6841 66.3218C85.0432 66.1826 85.3324 65.906 85.4882 65.5529L92.6538 49.3835C92.8054 49.032 92.8126 48.6347 92.6741 48.2778C92.5357 47.9209 92.2626 47.6332 91.9141 47.477Z" fill="#B3E5FC"/>
<path d="M30 130H31.4723L57.4444 91.6882C57.7842 91.0108 57.5954 90.672 56.8781 90.672H46.1571L57.4444 70.1613C57.7842 69.4839 57.5199 69.1452 56.6894 69.1452H42.3066C41.8913 69.1452 41.5516 69.371 41.2118 69.8226L30.7173 97.672C30.6418 98.3495 30.8683 98.6882 31.4345 98.6882H41.8158L30 130ZM62.0877 106.177H63.1069L82.8125 77.3118C83.0013 77.0108 83.039 76.7473 82.9635 76.5591C82.888 76.371 82.6615 76.2957 82.3218 76.2957H74.3942L82.6238 61.129C83.0768 60.3763 82.8503 60 81.9443 60H71.6007C71.11 60 70.7325 60.2258 70.4682 60.7151L62.6162 81.3387C62.5029 81.6774 62.5029 81.9409 62.6539 82.129C62.8049 82.3172 63.0314 82.3925 63.3712 82.3925H71.0722L62.0877 106.177Z" fill="#B3E5FC"/>
<path d="M60.2263 60.6658C60.1921 59.9971 60.1251 59.3307 60.0259 58.6691C59.3578 54.2697 57.2054 50.2632 53.9558 47.3705C50.7062 44.4777 46.5728 42.8887 42.2993 42.8893C38.0259 42.8899 33.8929 44.48 30.6441 47.3736C27.3952 50.2672 25.2437 54.2743 24.5767 58.674C24.4781 59.334 24.4115 59.9987 24.3772 60.6658C21.5397 61.734 19.0871 63.6879 17.3533 66.2612C15.6196 68.8346 14.6889 71.9024 14.6881 75.047C14.6881 75.5559 14.8821 76.0439 15.2273 76.4037C15.5725 76.7636 16.0408 76.9657 16.529 76.9657H68.0745C68.5627 76.9657 69.031 76.7636 69.3762 76.4037C69.7214 76.0439 69.9154 75.5559 69.9154 75.047C69.9146 71.9024 68.984 68.8346 67.2502 66.2612C65.5164 63.6879 63.0638 61.734 60.2263 60.6658Z" fill="#B2EBF2"/>
<path d="M100.424 36.0593C100.069 30.3526 97.5667 24.9966 93.4271 21.081C89.2875 17.1654 83.8213 14.9845 78.1408 14.9819C77.0957 14.9819 76.0518 15.0546 75.0167 15.1995C72.6614 10.6271 69.1055 6.79232 64.7359 4.11244C60.3663 1.43256 55.3502 0.0101663 50.2334 0C49.9463 0 49.6366 0.00187317 49.4386 0.0187278C43.8022 0.162008 38.3428 2.02879 33.786 5.37089C29.2291 8.71298 25.7909 13.3721 23.9285 18.7286C20.0275 18.8016 16.3107 20.4113 13.5761 23.2124C10.8414 26.0134 9.30705 29.7821 9.30251 33.7092C9.30281 34.2825 9.33617 34.8552 9.40242 35.4247C6.59284 36.8199 4.22492 38.9754 2.56418 41.6495C0.903448 44.3236 0.0155488 47.4103 4.05167e-05 50.5639C-0.00648977 53.5311 0.776483 56.4461 2.26761 59.0058C2.43185 59.2865 2.66609 59.5193 2.94715 59.681C3.22821 59.8427 3.54633 59.9276 3.87005 59.9275H24.8563C25.2994 59.9275 25.7281 59.7683 26.0649 59.4784C26.4019 59.1886 26.625 58.7872 26.6941 58.3466C27.2309 54.9344 28.9598 51.8271 31.5697 49.5834C34.1795 47.3398 37.499 46.107 40.9311 46.107C44.3632 46.107 47.6827 47.3398 50.2926 49.5834C52.9024 51.8271 54.6312 54.9344 55.1681 58.3466C55.2372 58.7872 55.4602 59.1886 55.7972 59.4784C56.1341 59.7683 56.5628 59.9275 57.006 59.9275H107.425C107.725 59.9276 108.019 59.855 108.285 59.7159C108.55 59.5768 108.778 59.3751 108.95 59.1282C110.698 56.6195 111.634 53.6283 111.63 50.5639C111.617 47.2394 110.511 44.0129 108.483 41.3886C106.456 38.7643 103.622 36.8902 100.424 36.0593Z" fill="#9CD5F2"/>
</svg>
