<svg width="112" height="103" viewBox="0 0 112 103" fill="none" xmlns="http://www.w3.org/2000/svg">
<path d="M22.5055 74.7212C22.3281 74.6697 22.1387 74.6467 21.9482 74.6537C21.7578 74.6606 21.5699 74.6973 21.3954 74.7617C21.2209 74.8261 21.0632 74.917 20.9312 75.029C20.7993 75.1411 20.6958 75.2721 20.6266 75.4147L14.2 88.5824C14.06 88.8702 14.0681 89.1876 14.2226 89.4645C14.377 89.7416 14.6651 89.9556 15.0234 90.0596C15.3818 90.1635 15.7811 90.1488 16.1334 90.0188C16.4858 89.8887 16.7624 89.654 16.9024 89.3661L23.3428 76.1861C23.4776 75.8984 23.4652 75.583 23.3084 75.3085C23.1515 75.0341 22.8629 74.823 22.5055 74.7212ZM33.2372 74.1217C33.0598 74.0701 32.8704 74.0472 32.6799 74.0541C32.4894 74.0611 32.3015 74.0978 32.127 74.1622C31.9525 74.2266 31.7948 74.3174 31.6629 74.4295C31.531 74.5415 31.4275 74.6726 31.3583 74.8152L18.5208 101.173C18.4515 101.315 18.4178 101.466 18.4217 101.618C18.4256 101.769 18.4669 101.918 18.5434 102.055C18.6198 102.192 18.7299 102.315 18.8673 102.417C19.0047 102.519 19.1668 102.598 19.3442 102.65C19.5217 102.701 19.711 102.724 19.9015 102.717C20.0919 102.71 20.2798 102.673 20.4542 102.609C20.6287 102.545 20.7864 102.454 20.9184 102.342C21.0503 102.23 21.1539 102.099 21.2232 101.956L34.104 75.5965C34.1721 75.4519 34.2036 75.2988 34.1968 75.146C34.1898 74.9932 34.1447 74.8438 34.0641 74.7065C33.9834 74.5692 33.8687 74.4468 33.7267 74.3464C33.5848 74.246 33.4184 74.1696 33.2372 74.1217ZM54.715 72.9218C54.5376 72.8703 54.3481 72.8473 54.1577 72.8543C53.9672 72.8612 53.7793 72.898 53.6048 72.9624C53.4303 73.0268 53.2726 73.1176 53.1407 73.2296C53.0087 73.3417 52.9052 73.4727 52.836 73.6153L39.9406 99.9761C39.8713 100.119 39.8377 100.27 39.8416 100.421C39.8454 100.573 39.8867 100.721 39.9632 100.858C40.0397 100.996 40.1498 101.119 40.2871 101.221C40.4246 101.323 40.5867 101.402 40.7641 101.453C40.9415 101.505 41.1308 101.528 41.3213 101.521C41.5118 101.514 41.6996 101.477 41.8741 101.413C42.0485 101.348 42.2062 101.257 42.3382 101.145C42.4702 101.033 42.5737 100.902 42.643 100.76L55.5239 74.3998C55.6651 74.1134 55.6593 73.797 55.5077 73.52C55.3561 73.243 55.071 73.0279 54.715 72.9218ZM43.9688 73.5222C43.7914 73.4706 43.6021 73.4477 43.4115 73.4546C43.221 73.4616 43.0331 73.4983 42.8586 73.5627C42.6841 73.6271 42.5264 73.7179 42.3945 73.83C42.2626 73.942 42.1591 74.0731 42.0899 74.2156L35.6488 87.3841C35.5088 87.672 35.5169 87.9894 35.6714 88.2663C35.8258 88.5434 36.1138 88.7574 36.4722 88.8613C36.8306 88.9653 37.2299 88.9506 37.5823 88.8205C37.9346 88.6905 38.2112 88.4558 38.3511 88.1679L44.7916 74.9879C44.9274 74.7016 44.9172 74.3871 44.7631 74.1128C44.6091 73.8384 44.3237 73.6262 43.9688 73.5222Z" fill="#B3E5FC"/>
<path d="M64.4173 49.477C64.243 49.3994 64.0552 49.3571 63.8646 49.3525C63.6741 49.3478 63.4844 49.3809 63.3066 49.4499C63.1288 49.5188 62.9662 49.6222 62.8283 49.7542C62.6903 49.8862 62.5797 50.0442 62.5026 50.2192L55.3515 66.3739C55.1957 66.7272 55.1861 67.128 55.3249 67.4882C55.4636 67.8485 55.7393 68.1387 56.0913 68.295C56.4433 68.4514 56.8428 68.4611 57.2018 68.3218C57.5609 68.1826 57.8502 67.906 58.006 67.5529L65.1716 51.3835C65.3222 51.0302 65.3274 50.6314 65.1861 50.2742C65.0448 49.9171 64.7684 49.6305 64.4173 49.477ZM75.1657 49.477C74.9914 49.3994 74.8036 49.3571 74.6131 49.3525C74.4225 49.3478 74.2328 49.3809 74.055 49.4499C73.8771 49.5188 73.7146 49.6222 73.5767 49.7542C73.4387 49.8862 73.328 50.0442 73.2509 50.2192L58.9633 82.5578C58.8862 82.7327 58.8441 82.9211 58.8395 83.1123C58.835 83.3035 58.868 83.4937 58.9367 83.6721C59.0054 83.8504 59.1084 84.0135 59.2399 84.152C59.3714 84.2904 59.5288 84.4015 59.7031 84.4789C59.8774 84.5563 60.0652 84.5985 60.2557 84.6031C60.4463 84.6076 60.6359 84.5746 60.8137 84.5056C60.9914 84.4368 61.154 84.3334 61.2919 84.2014C61.4299 84.0695 61.5406 83.9115 61.6178 83.7367L75.949 51.3981C76.0249 51.2205 76.0649 51.0296 76.0666 50.8364C76.0682 50.6432 76.0316 50.4516 75.9586 50.2728C75.8858 50.094 75.7781 49.9315 75.6419 49.7949C75.5057 49.6582 75.3439 49.5502 75.1657 49.477ZM96.677 49.477C96.5027 49.3994 96.3148 49.3571 96.1243 49.3525C95.9337 49.3478 95.7441 49.3809 95.5663 49.4499C95.3884 49.5188 95.2259 49.6222 95.0879 49.7542C94.95 49.8862 94.8393 50.0442 94.7622 50.2192L80.4166 82.5578C80.3394 82.7327 80.2974 82.9211 80.2928 83.1123C80.2882 83.3035 80.3212 83.4937 80.3899 83.6721C80.4586 83.8504 80.5616 84.0135 80.6931 84.152C80.8246 84.2904 80.9821 84.4015 81.1563 84.4789C81.3306 84.5563 81.5185 84.5985 81.7089 84.6031C81.8995 84.6076 82.0891 84.5746 82.2669 84.5056C82.4446 84.4368 82.6073 84.3334 82.7452 84.2014C82.8832 84.0695 82.9939 83.9115 83.0711 83.7367L97.4022 51.3981C97.5592 51.0467 97.5709 50.6473 97.4351 50.2872C97.2991 49.9271 97.0265 49.6358 96.677 49.477ZM85.9141 49.477C85.7398 49.3994 85.5519 49.3571 85.3613 49.3525C85.1708 49.3478 84.9812 49.3809 84.8033 49.4499C84.6255 49.5188 84.463 49.6222 84.3251 49.7542C84.1871 49.8862 84.0764 50.0442 83.9993 50.2192L76.8338 66.3739C76.678 66.7272 76.6683 67.128 76.8071 67.4882C76.9459 67.8485 77.2215 68.1387 77.5736 68.295C77.9255 68.4514 78.325 68.4611 78.6841 68.3218C79.0432 68.1826 79.3324 67.906 79.4882 67.5529L86.6538 51.3835C86.8054 51.032 86.8127 50.6347 86.6741 50.2778C86.5357 49.9209 86.2626 49.6332 85.9141 49.477Z" fill="#B3E5FC"/>
<path d="M60.2263 60.6658C60.1921 59.9971 60.1251 59.3307 60.0259 58.6692C59.3578 54.2697 57.2054 50.2632 53.9558 47.3705C50.7062 44.4778 46.5728 42.8887 42.2993 42.8893C38.0259 42.8899 33.8929 44.48 30.6441 47.3736C27.3952 50.2672 25.2437 54.2743 24.5767 58.674C24.4781 59.334 24.4115 59.9987 24.3772 60.6658C21.5397 61.734 19.0871 63.6879 17.3533 66.2613C15.6196 68.8346 14.6889 71.9025 14.6881 75.047C14.6881 75.5559 14.8821 76.0439 15.2273 76.4037C15.5725 76.7636 16.0408 76.9657 16.529 76.9657H68.0745C68.5627 76.9657 69.031 76.7636 69.3762 76.4037C69.7214 76.0439 69.9154 75.5559 69.9154 75.047C69.9146 71.9025 68.984 68.8346 67.2502 66.2613C65.5164 63.6879 63.0638 61.734 60.2263 60.6658Z" fill="#B2EBF2"/>
<path d="M100.424 36.0593C100.069 30.3526 97.5667 24.9966 93.4271 21.081C89.2875 17.1654 83.8213 14.9845 78.1408 14.9819C77.0957 14.9819 76.0518 15.0546 75.0167 15.1995C72.6614 10.6271 69.1055 6.79232 64.7359 4.11244C60.3663 1.43256 55.3502 0.0101663 50.2334 0C49.9463 0 49.6366 0.00187317 49.4386 0.0187278C43.8022 0.162008 38.3428 2.02879 33.786 5.37089C29.2291 8.71298 25.7909 13.3721 23.9285 18.7286C20.0275 18.8016 16.3107 20.4113 13.5761 23.2124C10.8414 26.0134 9.30705 29.7821 9.30251 33.7092C9.30281 34.2825 9.33617 34.8552 9.40242 35.4247C6.59284 36.8199 4.22492 38.9754 2.56418 41.6495C0.903448 44.3236 0.0155488 47.4103 4.05167e-05 50.5639C-0.00648977 53.5311 0.776483 56.4461 2.26761 59.0058C2.43185 59.2865 2.66609 59.5193 2.94715 59.681C3.22821 59.8427 3.54633 59.9276 3.87005 59.9275H24.8563C25.2994 59.9275 25.7281 59.7683 26.0649 59.4784C26.4019 59.1886 26.625 58.7872 26.6941 58.3466C27.2309 54.9344 28.9598 51.8271 31.5697 49.5834C34.1795 47.3398 37.499 46.107 40.9311 46.107C44.3632 46.107 47.6827 47.3398 50.2926 49.5834C52.9024 51.8271 54.6312 54.9344 55.1681 58.3466C55.2372 58.7872 55.4602 59.1886 55.7972 59.4784C56.1341 59.7683 56.5628 59.9275 57.006 59.9275H107.425C107.725 59.9276 108.019 59.855 108.285 59.7159C108.55 59.5768 108.778 59.3751 108.95 59.1282C110.698 56.6195 111.634 53.6283 111.63 50.5639C111.617 47.2394 110.511 44.0129 108.483 41.3886C106.456 38.7643 103.622 36.8902 100.424 36.0593Z" fill="#9CD5F2"/>
</svg>
