<svg width="74" height="59" viewBox="0 0 74 59" fill="none" xmlns="http://www.w3.org/2000/svg">
<path d="M0 36.8037C0 35.972 0.277241 35.2789 0.866378 34.6898C1.49017 34.1006 2.18327 33.8234 2.94568 33.8234H10.0153C10.8124 33.8234 11.4708 34.1006 12.0253 34.6898C12.5452 35.2789 12.8224 35.972 12.8224 36.8037C12.8224 37.6355 12.5452 38.3286 12.0253 38.883C11.5055 39.4722 10.8124 39.7494 10.0153 39.7494H2.98034C2.18327 39.7494 1.49017 39.4722 0.901034 38.883C0.311897 38.2939 0 37.6008 0 36.8037ZM9.91136 12.857C9.91136 12.06 10.1886 11.3669 10.7084 10.7431C11.4015 10.1539 12.1293 9.87671 12.9264 9.87671C13.6541 9.87671 14.3472 10.1539 14.971 10.7431L19.9267 15.8027C20.4812 16.3226 20.7584 17.0157 20.7584 17.8474C20.7584 18.6791 20.4812 19.3722 19.9267 19.9267C19.3722 20.4812 18.6791 20.7584 17.8474 20.7584C17.0157 20.7584 16.3226 20.4812 15.8027 19.9267L10.7431 14.971C10.1886 14.3819 9.91136 13.6888 9.91136 12.857ZM10.4658 45.121C10.4658 44.3585 10.7431 43.7001 11.2629 43.2149C11.8174 42.7298 12.5452 42.4525 13.4808 42.4525H33.2689C34.2046 42.4525 34.9324 42.6951 35.4868 43.2149C36.0413 43.7001 36.3186 44.3585 36.3186 45.121C36.3186 46.0566 36.0413 46.7844 35.5215 47.3389C34.967 47.8934 34.2393 48.1706 33.2689 48.1706H13.4808C12.5452 48.1706 11.8174 47.8934 11.2629 47.3735C10.7084 46.8537 10.4658 46.0566 10.4658 45.121ZM13.8967 55.3442C13.8967 54.5818 14.2086 53.8887 14.867 53.2649C15.4908 52.6411 16.2186 52.3292 16.9464 52.3292C17.8474 52.3292 18.5751 52.6411 19.1296 53.2303C19.6841 53.854 19.9613 54.5471 19.9613 55.3442C19.9613 56.3146 19.6841 57.0423 19.1643 57.5968C18.6444 58.1513 17.882 58.3939 16.9464 58.3939C16.1493 58.3939 15.4215 58.1166 14.8324 57.5621C14.2086 57.0077 13.8967 56.2452 13.8967 55.3442ZM18.7831 37.8087V37.5661C18.887 33.1996 20.4119 29.4222 23.3229 26.1993C26.2339 22.9763 29.8034 21.0357 34.066 20.3426H34.2393C34.8977 20.2039 35.7987 20.1346 36.873 20.1346C37.9474 20.1346 38.8484 20.2039 39.5068 20.3426H39.6455C43.8734 21.001 47.4775 22.9763 50.3885 26.1993C53.2996 29.4222 54.8244 33.1996 54.9284 37.5661V37.8087C54.9284 38.3632 54.6511 38.6404 54.1313 38.6404H50.2153C49.7994 38.6404 49.5222 38.5365 49.3489 38.3286C49.1756 38.1206 49.1063 37.9127 49.1063 37.7048C48.9677 34.4818 47.7201 31.7441 45.3635 29.4915C43.007 27.2389 40.1999 26.13 36.9077 26.13C33.6155 26.13 30.8084 27.2389 28.4518 29.4915C26.0953 31.7441 24.8477 34.4818 24.7091 37.7048C24.7091 37.9127 24.6051 38.1206 24.4319 38.3286C24.2586 38.5365 23.9467 38.6404 23.5308 38.6404H19.6148C19.0603 38.6404 18.7831 38.3632 18.7831 37.8087ZM22.2832 55.3442C22.2832 54.5471 22.5605 53.854 23.115 53.2303C23.6694 52.6411 24.3972 52.3292 25.2982 52.3292H38.5711C39.3336 52.3292 40.0267 52.6411 40.6504 53.2649C41.2742 53.8887 41.6208 54.5818 41.6208 55.3442C41.6208 56.2452 41.3089 57.0077 40.6851 57.5621C40.0613 58.1166 39.3682 58.3939 38.5711 58.3939H25.2982C24.3625 58.3939 23.6348 58.1166 23.0803 57.5968C22.5258 57.0423 22.2832 56.3146 22.2832 55.3442ZM33.858 10.0153V2.98034C33.858 2.14862 34.1353 1.45551 34.7244 0.866378C35.3136 0.277241 36.0067 0 36.8384 0C37.6701 0 38.3286 0.277241 38.9177 0.866378C39.5068 1.45551 39.7841 2.14862 39.7841 2.98034V10.0153C39.7841 10.8124 39.5068 11.5055 38.9177 12.0253C38.3286 12.5452 37.6355 12.857 36.8384 12.857C36.0413 12.857 35.3136 12.5798 34.7591 12.06C34.2046 11.5402 33.858 10.8124 33.858 10.0153ZM38.5711 45.121C38.5711 44.3932 38.883 43.7694 39.5068 43.2496C40.1306 42.7298 40.8237 42.4525 41.6208 42.4525C42.4179 42.4525 43.111 42.7298 43.7348 43.2496C44.3585 43.7694 44.6704 44.3932 44.6704 45.121C44.6704 46.022 44.3585 46.7844 43.7348 47.3389C43.111 47.8934 42.4179 48.1706 41.6208 48.1706C40.8237 48.1706 40.096 47.8934 39.5068 47.3389C38.883 46.7497 38.5711 46.022 38.5711 45.121ZM43.908 55.3442C43.908 54.5471 44.1853 53.854 44.7398 53.2303C45.2942 52.6411 46.0566 52.3292 46.9577 52.3292H53.4035C54.3046 52.3292 55.0323 52.6411 55.5868 53.2303C56.1413 53.854 56.4185 54.5471 56.4185 55.3442C56.4185 56.3146 56.1413 57.0423 55.6215 57.5968C55.1016 58.1513 54.3392 58.3939 53.4035 58.3939H46.9577C46.022 58.3939 45.2942 58.1166 44.7398 57.5968C44.1853 57.0423 43.908 56.3146 43.908 55.3442ZM46.9577 45.121C46.9577 44.3932 47.2696 43.7694 47.8934 43.2496C48.5172 42.7298 49.2103 42.4525 49.9727 42.4525H60.6118C61.3742 42.4525 61.998 42.6951 62.4832 43.2149C62.9683 43.7348 63.2456 44.3585 63.2456 45.121C63.2456 46.0566 63.003 46.7844 62.5178 47.3389C62.0327 47.8934 61.4089 48.1706 60.6118 48.1706H49.9727C49.1756 48.1706 48.4825 47.8934 47.8587 47.3389C47.2696 46.7497 46.9577 46.022 46.9577 45.121ZM52.9877 17.8474C52.9877 16.981 53.2649 16.2879 53.7847 15.8027L58.7058 10.7431C59.3295 10.1539 60.0227 9.87671 60.7504 9.87671C61.5475 9.87671 62.2406 10.1539 62.8297 10.7431C63.4189 11.3322 63.6961 12.0253 63.6961 12.857C63.6961 13.6888 63.4189 14.4165 62.8644 14.971L57.8047 19.892C57.1809 20.4465 56.4878 20.7238 55.7254 20.7238C54.9284 20.7238 54.3046 20.4465 53.7847 19.892C53.2649 19.3722 52.9877 18.6791 52.9877 17.8474ZM60.8197 36.8037C60.8197 36.0067 61.097 35.3136 61.6514 34.6898C62.2406 34.1006 62.899 33.8234 63.6268 33.8234H70.6271C71.4242 33.8234 72.1173 34.1353 72.7064 34.7244C73.2956 35.3136 73.6075 36.0067 73.6075 36.8037C73.6075 37.6008 73.2956 38.2939 72.7064 38.883C72.1173 39.4722 71.4242 39.7494 70.6271 39.7494H63.6268C62.8297 39.7494 62.1366 39.4722 61.6168 38.883C61.097 38.2939 60.8197 37.6355 60.8197 36.8037Z" fill="#525252"/>
</svg>
