<svg width="74" height="74" viewBox="0 0 74 74" fill="none" xmlns="http://www.w3.org/2000/svg">
<path d="M0 36.9258C0 35.9978 0.341905 35.1675 0.976873 34.4837C1.61184 33.7998 2.39334 33.4579 3.32137 33.4579C4.2494 33.4579 5.07975 33.7998 5.71471 34.4837C6.34968 35.1675 6.69159 35.949 6.69159 36.9258C6.69159 37.8539 6.34968 38.6354 5.71471 39.2703C5.07975 39.9053 4.2494 40.2472 3.37021 40.2472C2.49103 40.2472 1.66069 39.9053 1.02572 39.2703C0.293062 38.5865 0 37.805 0 36.9258ZM9.67105 36.9258C9.67105 35.9978 10.013 35.1675 10.6479 34.4837C11.2829 33.7998 12.0644 33.4579 12.9924 33.4579H28.7689L17.6326 22.3216C16.9488 21.7355 16.6069 20.954 16.6069 20.0259C16.6069 19.0979 16.9488 18.3164 17.6326 17.6326C18.3164 16.9488 19.0979 16.6069 20.0259 16.6069C20.954 16.6069 21.7355 16.9488 22.4193 17.6326L33.5068 28.7201V13.0413C33.5068 12.1132 33.8487 11.2829 34.5325 10.5991C35.2163 9.91528 35.9978 9.57337 36.9747 9.57337C37.9027 9.57337 38.6842 9.91528 39.3192 10.5991C39.9542 11.2829 40.2961 12.0644 40.2961 13.0413V28.8178L51.4813 17.5837C52.1651 16.8999 52.9466 16.558 53.8258 16.558C54.705 16.558 55.5353 16.8999 56.2191 17.5837C56.8052 18.2675 57.0983 19.049 57.0983 19.9771C57.0983 20.9051 56.8052 21.6866 56.2191 22.2727L45.0827 33.4091H60.8593C61.7384 33.4091 62.5199 33.751 63.1549 34.4348C63.7899 35.1186 64.1318 35.9001 64.1318 36.877C64.1318 37.7562 63.7899 38.5377 63.1549 39.1727C62.5199 39.8076 61.7384 40.1495 60.8593 40.1495H45.0827L56.2679 51.3347C56.8541 51.9209 57.1471 52.7024 57.1471 53.6304C57.1471 54.5584 56.8541 55.3399 56.2679 56.0237C55.5841 56.7075 54.7538 57.0495 53.8746 57.0495C52.9954 57.0495 52.1651 56.7075 51.5301 56.0237L40.3449 44.7897V60.615C40.3449 61.5431 40.003 62.3734 39.368 63.0084C38.7331 63.6433 37.9516 63.9853 37.0235 63.9853C36.0955 63.9853 35.2652 63.6433 34.5813 63.0084C33.8975 62.3734 33.5556 61.5431 33.5556 60.615V44.8874L22.4681 55.9749C21.7843 56.6587 21.0028 57.0006 20.0748 57.0006C19.1467 57.0006 18.3652 56.6587 17.6814 55.9749C16.9976 55.2911 16.6557 54.5096 16.6557 53.5815C16.6557 52.6535 16.9976 51.9209 17.6814 51.2859L28.9155 40.1007H13.0901C12.1621 40.1007 11.3806 39.7588 10.7456 39.1238C9.96412 38.5865 9.67105 37.805 9.67105 36.9258ZM9.7199 60.5662C9.7199 59.687 10.0618 58.8567 10.7456 58.2217C11.3317 57.5379 12.1132 57.196 13.0413 57.196C13.9693 57.196 14.7508 57.5379 15.4346 58.2217C16.1184 58.9055 16.4603 59.687 16.4603 60.5662C16.4603 61.4454 16.1184 62.2757 15.4346 62.9107C14.7508 63.5945 13.9693 63.9364 13.0413 63.9364C12.1132 63.9364 11.3317 63.5945 10.7456 62.9107C10.0618 62.2757 9.7199 61.4942 9.7199 60.5662ZM9.7199 13.139C9.7199 12.2598 10.0618 11.4294 10.7456 10.7945C11.3317 10.1107 12.1132 9.76874 13.0413 9.76874C13.9693 9.76874 14.7508 10.1107 15.4346 10.7945C16.1184 11.4783 16.4603 12.2598 16.4603 13.139C16.4603 14.0181 16.1184 14.8485 15.4346 15.5323C14.7508 16.2161 13.9693 16.558 13.0413 16.558C12.1132 16.558 11.3317 16.2161 10.7456 15.5323C10.0618 14.8485 9.7199 14.0181 9.7199 13.139ZM33.4091 70.3349C33.4091 69.4558 33.751 68.6743 34.4348 68.0393C35.1186 67.4043 35.9001 67.0624 36.877 67.0624C37.805 67.0624 38.5865 67.4043 39.2215 68.0393C39.8565 68.6743 40.1984 69.4558 40.1984 70.3349C40.1984 71.263 39.8565 72.0933 39.2215 72.7283C38.5865 73.3632 37.805 73.7052 36.877 73.7052C35.949 73.7052 35.1186 73.3632 34.4348 72.7283C33.751 72.0933 33.4091 71.3118 33.4091 70.3349ZM33.4091 3.37022C33.4091 2.44219 33.751 1.61184 34.4348 0.976876C35.1186 0.341907 35.9001 0 36.877 0C37.805 0 38.5865 0.341907 39.2215 0.976876C39.8565 1.61184 40.1984 2.44219 40.1984 3.37022C40.1984 4.2494 39.8565 5.0309 39.2215 5.66587C38.5865 6.30084 37.805 6.64274 36.877 6.64274C35.949 6.64274 35.1186 6.30084 34.4348 5.66587C33.751 5.0309 33.4091 4.2494 33.4091 3.37022ZM57.196 60.5662C57.196 59.687 57.5379 58.8567 58.2217 58.2217C58.8078 57.5379 59.5893 57.196 60.5174 57.196C61.4454 57.196 62.2269 57.5379 62.9107 58.2217C63.5945 58.9055 63.9364 59.687 63.9364 60.5662C63.9364 61.4454 63.5945 62.2757 62.9107 62.9107C62.2269 63.5945 61.4454 63.9364 60.5174 63.9364C59.5893 63.9364 58.8078 63.5945 58.2217 62.9107C57.5379 62.2757 57.196 61.4942 57.196 60.5662ZM57.196 13.139C57.196 12.2598 57.5379 11.4294 58.2217 10.7945C58.8078 10.1107 59.5893 9.76874 60.5174 9.76874C61.4454 9.76874 62.2269 10.1107 62.9107 10.7945C63.5945 11.4783 63.9364 12.2598 63.9364 13.139C63.9364 14.0181 63.5945 14.8485 62.9107 15.5323C62.2269 16.2161 61.4454 16.558 60.5174 16.558C59.5893 16.558 58.8078 16.2161 58.2217 15.5323C57.5379 14.8485 57.196 14.0181 57.196 13.139ZM66.9647 36.9258C66.9647 35.9978 67.3066 35.1675 67.9416 34.4837C68.5766 33.7998 69.4069 33.4579 70.3349 33.4579C71.2141 33.4579 71.9956 33.7998 72.6306 34.4837C73.2656 35.1675 73.6075 35.949 73.6075 36.9258C73.6075 37.805 73.2656 38.5865 72.6306 39.2215C71.9956 39.8565 71.2141 40.1984 70.3349 40.1984C69.4069 40.1984 68.5766 39.8565 67.9416 39.2215C67.3066 38.5865 66.9647 37.805 66.9647 36.9258Z" fill="#9CD5F2"/>
</svg>
