<svg width="152" height="128" viewBox="0 0 152 128" fill="none" xmlns="http://www.w3.org/2000/svg">
<g clip-path="url(#clip0_14_70)">
<path d="M100.889 5.11111C100.889 5.11111 100.889 0 106 0C111.111 0 111.111 5.11111 111.111 5.11111V10.2222C111.111 10.2222 111.111 15.3333 106 15.3333C100.889 15.3333 100.889 10.2222 100.889 10.2222V5.11111Z" fill="#FFAC33"/>
<path d="M146.889 40.8889C146.889 40.8889 152 40.8889 152 46C152 51.1112 146.889 51.1112 146.889 51.1112H141.778C141.778 51.1112 136.667 51.1112 136.667 46C136.667 40.8889 141.778 40.8889 141.778 40.8889H146.889Z" fill="#FFAC33"/>
<path d="M70.2222 40.8889C70.2222 40.8889 75.3333 40.8889 75.3333 46C75.3333 51.1112 70.2222 51.1112 70.2222 51.1112H65.1111C65.1111 51.1112 60 51.1112 60 46C60 40.8889 65.1111 40.8889 65.1111 40.8889H70.2222Z" fill="#FFAC33"/>
<path d="M83.3092 18.6403C83.3092 18.6403 86.9228 22.2539 83.3092 25.8674C79.6957 29.481 76.0821 25.8674 76.0821 25.8674L72.466 22.2539C72.466 22.2539 68.8524 18.6403 72.466 15.0242C76.0821 11.4107 79.6956 15.0242 79.6956 15.0242L83.3092 18.6403Z" fill="#FFAC33"/>
<path d="M136.976 72.3043C136.976 72.3043 140.59 75.9179 136.976 79.5314C133.362 83.1448 129.749 79.5314 129.749 79.5314L126.135 75.9179C126.135 75.9179 122.522 72.3043 126.135 68.6907C129.749 65.0771 133.362 68.6907 133.362 68.6907L136.976 72.3043Z" fill="#FFAC33"/>
<path d="M135.92 25.8647C135.92 25.8647 132.307 29.4783 128.693 25.8647C125.08 22.2511 128.693 18.6376 128.693 18.6376L132.307 15.0241C132.307 15.0241 135.92 11.4105 139.534 15.0241C143.148 18.6376 139.534 22.2511 139.534 22.2511L135.92 25.8647Z" fill="#FFAC33"/>
<path d="M82.2538 79.5314C82.2538 79.5314 78.6403 83.1448 75.0268 79.5314C71.4132 75.9179 75.0268 72.3043 75.0268 72.3043L78.6403 68.6907C78.6403 68.6907 82.2538 65.0771 85.8674 68.6907C89.4809 72.3043 85.8674 75.9179 85.8674 75.9179L82.2538 79.5314Z" fill="#FFAC33"/>
<path d="M100.889 81.7775C100.889 81.7775 100.889 76.6667 106 76.6667C111.111 76.6667 111.111 81.7775 111.111 81.7775V86.8891C111.111 86.8891 111.111 92 106 92C100.889 92 100.889 86.8891 100.889 86.8891V81.7775Z" fill="#FFAC33"/>
<path d="M131.556 46C131.556 31.8856 120.112 20.4444 106 20.4444C91.8857 20.4444 80.4445 31.8856 80.4445 46C80.4445 60.1118 91.8857 71.5555 106 71.5555C120.112 71.5555 131.556 60.1118 131.556 46Z" fill="#FFAC33"/>
</g>
<g clip-path="url(#clip1_14_70)">
<path d="M121.448 79.8235C121.019 72.9672 117.993 66.5322 112.987 61.8278C107.98 57.1234 101.37 54.5031 94.5 54.5C93.2361 54.5 91.9737 54.5873 90.7218 54.7614C87.8735 49.2679 83.5732 44.6606 78.2887 41.4409C73.0043 38.2211 66.9381 36.5122 60.75 36.5C60.4028 36.5 60.0282 36.5023 59.7888 36.5225C52.9725 36.6946 46.37 38.9375 40.8592 42.9529C35.3485 46.9682 31.1904 52.5659 28.938 59.0016C24.2205 59.0892 19.7255 61.0233 16.4183 64.3885C13.1111 67.7537 11.2555 72.2817 11.25 77C11.2504 77.6888 11.2907 78.3769 11.3709 79.061C7.97308 80.7374 5.10943 83.3271 3.10101 86.5398C1.09259 89.7525 0.0188041 93.4612 4.8999e-05 97.25C-0.00784844 100.815 0.939045 104.317 2.74235 107.393C2.94097 107.73 3.22425 108.009 3.56415 108.204C3.90405 108.398 4.28879 108.5 4.68027 108.5H30.06C30.596 108.5 31.1144 108.309 31.5219 107.96C31.9293 107.612 32.1991 107.13 32.2826 106.601C32.9319 102.501 35.0227 98.7677 38.1789 96.072C41.3351 93.3764 45.3496 91.8954 49.5002 91.8954C53.6509 91.8954 57.6654 93.3764 60.8216 96.072C63.9778 98.7677 66.0686 102.501 66.7179 106.601C66.8014 107.13 67.0712 107.612 67.4786 107.96C67.8861 108.309 68.4045 108.5 68.9405 108.5H129.915C130.277 108.5 130.634 108.413 130.955 108.246C131.276 108.079 131.552 107.836 131.759 107.54C133.874 104.526 135.006 100.932 135 97.25C134.985 93.2559 133.647 89.3794 131.195 86.2264C128.743 83.0735 125.316 80.8218 121.448 79.8235Z" fill="#9CD5F2"/>
</g>
<g clip-path="url(#clip2_14_70)">
<path d="M72.7455 109.345C72.704 108.58 72.6228 107.817 72.5023 107.06C71.6918 102.025 69.0805 97.4393 65.1382 94.1286C61.1959 90.818 56.1815 88.9993 50.9971 89C45.8126 89.0007 40.7987 90.8206 36.8572 94.1322C32.9158 97.4439 30.3057 102.03 29.4966 107.065C29.3769 107.821 29.2961 108.582 29.2545 109.345C25.8122 110.568 22.8367 112.804 20.7334 115.749C18.63 118.694 17.501 122.205 17.5 125.804C17.5 126.386 17.7353 126.945 18.1541 127.357C18.573 127.769 19.141 128 19.7333 128H82.2667C82.859 128 83.427 127.769 83.8459 127.357C84.2647 126.945 84.5 126.386 84.5 125.804C84.499 122.205 83.37 118.694 81.2666 115.749C79.1633 112.804 76.1879 110.568 72.7455 109.345Z" fill="#B2EBF2"/>
</g>
<defs>
<clipPath id="clip0_14_70">
<rect width="92" height="92" fill="white" transform="translate(60)"/>
</clipPath>
<clipPath id="clip1_14_70">
<rect width="135" height="72" fill="white" transform="translate(0 36.5)"/>
</clipPath>
<clipPath id="clip2_14_70">
<rect width="67" height="39" fill="white" transform="translate(17.5 89)"/>
</clipPath>
</defs>
</svg>
